# xmcd
#
# Track frame offsets:
#	150
#	11768
#	21605
#	30880
#	43038
#	55135
#	67470
#	79108
#	90883
#	102475
#	117158
#	129443
#	142350
#	162510
#	187325
#	207513
#	225553
#	245725
#
# Disc length: 3490 seconds
# Revision: 5
# Processed by: cddbd v1.5.2PL0 Copyright (c) Steve Scherf et al.
# Submitted via: dBpowerAMP V12.0
#
DISCID=0b0da012
DTITLE=Various Artist - Treacherous Too! A History Of The Neville Brothers, Vol. 2 (1955-1987)
DYEAR=1991
DGENRE=Rhythm and Blues
TTITLE0=The Hawketts - Your Time's Up
TTITLE1=Art Neville - Oooh-Whee Baby
TTITLE2=Art Neville - What's Going On
TTITLE3=Aaron Neville - How Many Times
TTITLE4=The Neville Brothers - Humdinger
TTITLE5=Art Neville - Skeet Skat
TTITLE6=Art Neville - Lover Of Love
TTITLE7=Art Neville - Hook, Line And Sinker
TTITLE8=Aaron Neville - Why Worry
TTITLE9=Aaron Neville - Jailhouse
TTITLE10=Aaron Neville - She's On My Mind
TTITLE11=Cyril Neville - Tell Me What's On Your Mind
TTITLE12=The Neville Brothers - Break Away
TTITLE13=The Neville Brothers - Mojo Hannah
TTITLE14=The Neville Brothers - Midnight Key
TTITLE15=The Neville Brothers - Drift Away
TTITLE16=The Neville Brothers - Spirits Of The World
TTITLE17=The Neville Brothers - Wake Up
EXTD=
EXTT0=
EXTT1=
EXTT2=
EXTT3=
EXTT4=
EXTT5=
EXTT6=
EXTT7=
EXTT8=
EXTT9=
EXTT10=
EXTT11=
EXTT12=
EXTT13=
EXTT14=
EXTT15=
EXTT16=
EXTT17=
PLAYORDER=
